<?xml version="1.0" standalone="no"?>
<!DOCTYPE svg PUBLIC "-//W3C//DTD SVG 20010904//EN"
 "http://www.w3.org/TR/2001/REC-SVG-20010904/DTD/svg10.dtd">
<svg version="1.0" xmlns="http://www.w3.org/2000/svg"
 width="1412.000000pt" height="1412.000000pt" viewBox="0 0 1412.000000 1412.000000"
 preserveAspectRatio="xMidYMid meet">
<metadata>
Created by potrace 1.11, written by Peter Selinger 2001-2013
</metadata>
<g transform="translate(0.000000,1412.000000) scale(0.100000,-0.100000)"
fill="#000000" stroke="none">
<path d="M11530 14020 c-775 -68 -1408 -379 -1878 -925 -308 -358 -550 -814
-732 -1383 -49 -151 -54 -162 -74 -156 -38 12 -455 208 -906 426 -1138 551
-1645 761 -2295 953 -953 281 -1860 352 -2600 204 -1077 -215 -1975 -882
-2527 -1874 -221 -398 -378 -853 -457 -1325 -86 -510 -79 -1197 20 -1884 112
-788 346 -1483 635 -1887 74 -104 200 -232 279 -284 124 -81 262 -108 344 -65
77 39 129 129 138 241 10 119 -48 239 -143 295 -48 28 -137 54 -190 54 -27 0
-37 8 -67 54 -273 412 -518 1249 -614 2106 -24 220 -25 756 0 960 66 546 201
1017 414 1445 461 929 1216 1521 2180 1709 874 170 1889 39 3058 -396 454
-169 874 -355 1730 -768 231 -111 521 -249 644 -306 124 -57 227 -106 229
-109 2 -2 -65 -80 -150 -172 -178 -195 -408 -460 -853 -983 -790 -928 -1154
-1336 -1590 -1779 -865 -881 -1549 -1380 -2128 -1555 -281 -85 -475 -86 -757
-7 -339 96 -635 274 -885 532 -478 494 -675 1222 -579 2147 90 875 436 1547
1021 1984 341 254 788 431 1123 445 413 17 846 -207 1089 -565 217 -320 277
-765 171 -1257 -116 -533 -460 -1030 -845 -1220 -118 -59 -198 -79 -310 -79
-106 0 -176 15 -263 56 -114 53 -239 194 -291 326 -17 43 -18 50 -4 76 59 113
89 298 63 391 -28 99 -103 163 -217 185 -200 39 -333 -114 -333 -383 0 -299
145 -638 364 -852 183 -179 376 -258 631 -257 186 0 320 34 520 133 505 248
947 837 1110 1478 38 150 55 273 62 436 24 612 -223 1212 -648 1572 -315 266
-704 415 -1084 416 -500 1 -1157 -324 -1642 -811 -546 -549 -870 -1260 -965
-2117 -20 -183 -17 -696 6 -855 79 -563 265 -1017 584 -1425 83 -106 335 -353
442 -433 453 -338 933 -482 1390 -417 769 110 1685 704 2623 1703 664 707
1579 1717 2117 2335 113 129 208 236 211 236 3 1 9 -77 12 -171 15 -415 124
-957 282 -1391 25 -70 31 -99 22 -101 -6 -2 -75 -18 -152 -36 -919 -211 -1697
-786 -2237 -1654 -106 -169 -269 -489 -352 -687 -162 -392 -278 -802 -342
-1212 -45 -284 -44 -754 2 -1182 131 -1224 580 -2233 1323 -2975 702 -700
1572 -988 2648 -875 1120 118 2029 640 2713 1560 532 714 916 1673 1080 2695
95 596 68 1066 -91 1543 -198 599 -593 989 -1151 1136 -189 50 -318 65 -553
65 -396 -1 -695 -70 -1050 -243 -494 -242 -928 -655 -1257 -1196 -300 -495
-498 -1081 -559 -1655 -16 -150 -16 -468 0 -595 55 -437 213 -797 461 -1046
150 -151 292 -240 475 -298 141 -46 206 -55 380 -54 443 2 875 161 1275 471
115 89 348 323 450 452 223 282 382 575 494 912 164 495 199 1037 95 1475 -63
267 -197 529 -316 619 -63 48 -173 54 -277 14 -53 -20 -104 -70 -133 -128 -23
-48 -28 -69 -27 -134 1 -136 72 -241 224 -331 54 -33 55 -34 78 -113 47 -163
57 -246 57 -484 0 -251 -12 -348 -70 -575 -174 -680 -625 -1269 -1179 -1539
-233 -114 -461 -170 -691 -171 -118 0 -151 4 -210 22 -299 95 -538 425 -632
872 -47 223 -34 525 38 882 130 648 425 1234 834 1657 209 217 423 373 680
497 213 103 395 161 625 200 130 22 406 31 511 16 338 -48 614 -225 804 -516
183 -279 283 -619 315 -1075 34 -467 -80 -1119 -296 -1703 -447 -1205 -1220
-2116 -2116 -2491 -207 -87 -417 -145 -658 -183 -161 -25 -602 -25 -775 0
-536 79 -1007 283 -1425 617 -143 114 -384 358 -507 511 -500 627 -814 1434
-884 2274 -13 153 -7 557 11 735 70 713 257 1319 560 1821 450 743 1156 1262
1916 1409 56 11 144 22 196 26 l93 6 45 -53 c133 -159 383 -395 556 -527 222
-168 451 -280 640 -313 94 -16 245 -7 324 20 165 57 324 192 397 338 55 110
70 195 54 309 -56 402 -326 695 -784 853 -232 80 -487 121 -753 121 l-151 0
-51 110 c-144 310 -242 648 -289 998 -29 223 -19 834 16 899 4 8 103 -31 310
-123 565 -250 838 -346 1246 -439 523 -118 1185 -167 1500 -110 411 74 752
242 1049 517 271 250 487 627 560 978 101 479 -24 985 -352 1423 -89 120 -281
315 -402 409 -360 279 -794 465 -1240 533 -128 19 -417 27 -560 15z m625 -530
c445 -73 844 -276 1135 -576 176 -181 288 -372 348 -594 23 -86 26 -113 26
-290 1 -215 -10 -296 -66 -470 -62 -196 -160 -359 -305 -510 -207 -217 -482
-359 -792 -410 -232 -39 -634 -52 -862 -30 -527 53 -1128 231 -1899 562 -129
56 -237 103 -239 104 -2 2 18 70 44 151 131 412 322 801 545 1113 216 302 474
546 749 708 387 228 868 316 1316 242z m-1782 -5330 c290 -28 504 -137 579
-295 32 -69 37 -138 12 -173 -14 -20 -22 -23 -58 -17 -189 30 -383 141 -566
325 -58 58 -116 120 -128 138 l-23 32 43 0 c24 0 87 -5 141 -10z"/>
</g>
</svg>
